# xmcd
#
# Track frame offsets:
#       150
#       25022
#       42377
#       58007
#       73745
#       90310
#       113112
#       134892
#       156017
#       173115
#       190905
#       208132
#
# Disc length: 3066 seconds
#
# Revision: 0
# Processed by: cddbd v1.5.2PL0 Copyright (c) Steve Scherf et al.
# Submitted via: CD-DA_X-Tractor v0.24
#
DISCID=aa0bf80c
DTITLE=Gerald LeVert - In My Songs
DYEAR=2007
DGENRE=soul
TTITLE0=In My Songs
TTITLE1=I Don't Get Down Like That
TTITLE2=DJ Don't
TTITLE3=Wanna Get Up With You
TTITLE4=Fall Back
TTITLE5=Deep As It Goes
TTITLE6=Hang In There
TTITLE7=Sweeter
TTITLE8=What Cha Think About That
TTITLE9=To My Head
TTITLE10=M'Lady
TTITLE11=Is This The Way To Heaven?
EXTD=
EXTT0=
EXTT1=
EXTT2=
EXTT3=
EXTT4=
EXTT5=
EXTT6=
EXTT7=
EXTT8=
EXTT9=
EXTT10=
EXTT11=
PLAYORDER=
